# xmcd
#
# Track frame offsets:
#	150
#	22452
#	41892
#	54377
#	71140
#	90357
#	111070
#	130847
#	157925
#	174975
#	204152
#
# Disc length: 2947 seconds
#
# Revision: 1
# Processed by: cddbd v1.5.1PL0 Copyright (c) Steve Scherf et al.
# Submitted via: CDex 1.50Beta5
#
DISCID=8f0b810b
DTITLE=FROM YOUTH - くらしのうた
DYEAR=1900
DGENRE=Rock
TTITLE0=COVERS
TTITLE1=雨あがる
TTITLE2=youth side
TTITLE3=月光
TTITLE4=13's
TTITLE5=The Life
TTITLE6=あの頃
TTITLE7=風
TTITLE8=道
TTITLE9=終りの唄
TTITLE10=ヤンキーホール
EXTD=
EXTT0=
EXTT1=
EXTT2=
EXTT3=
EXTT4=
EXTT5=
EXTT6=
EXTT7=
EXTT8=
EXTT9=
EXTT10=
PLAYORDER=
